<mxfile host="app.diagrams.net" modified="2023-09-12T23:38:04.314Z" agent="Mozilla/5.0 (Windows NT 10.0; Win64; x64) AppleWebKit/537.36 (KHTML, like Gecko) Chrome/116.0.0.0 Safari/537.36 Edg/116.0.1938.76" etag="oOPRkZIrUSdY4qSrbmhZ" version="21.7.4" type="device">
  <diagram name="PÃ¡gina-1" id="KEsxKfqMkQz4kAKcejzY">
    <mxGraphModel dx="1054" dy="602" grid="1" gridSize="10" guides="1" tooltips="1" connect="1" arrows="1" fold="1" page="1" pageScale="1" pageWidth="827" pageHeight="1169" math="0" shadow="0">
      <root>
        <mxCell id="0" />
        <mxCell id="1" parent="0" />
        <mxCell id="FigWbDeiUK0dSUuucnBK-1" value="" style="rounded=0;whiteSpace=wrap;html=1;fillColor=#cce5ff;strokeColor=#36393d;" parent="1" vertex="1">
          <mxGeometry y="10" width="780" height="150" as="geometry" />
        </mxCell>
        <mxCell id="FigWbDeiUK0dSUuucnBK-2" value="PRICE TABLE" style="rounded=0;whiteSpace=wrap;html=1;fillColor=#FF7700;strokeColor=#d79b00;fontColor=#FFFFFF;fontStyle=1;fontSize=32;" parent="1" vertex="1">
          <mxGeometry x="20" y="30" width="200" height="130" as="geometry" />
        </mxCell>
        <mxCell id="FigWbDeiUK0dSUuucnBK-5" value="PREMIUM" style="rounded=0;whiteSpace=wrap;html=1;fillColor=#6a00ff;fontColor=#ffffff;strokeColor=#3700CC;" parent="1" vertex="1">
          <mxGeometry x="580" y="10" width="180" height="60" as="geometry" />
        </mxCell>
        <mxCell id="FigWbDeiUK0dSUuucnBK-7" value="" style="rounded=0;whiteSpace=wrap;html=1;fillColor=#6a00ff;fontColor=#ffffff;strokeColor=#3700CC;" parent="1" vertex="1">
          <mxGeometry x="580" y="130" width="180" height="30" as="geometry" />
        </mxCell>
        <mxCell id="FigWbDeiUK0dSUuucnBK-10" value="" style="rounded=0;whiteSpace=wrap;html=1;fillColor=#b1ddf0;strokeColor=#10739e;" parent="1" vertex="1">
          <mxGeometry x="400" y="130" width="180" height="30" as="geometry" />
        </mxCell>
        <mxCell id="FigWbDeiUK0dSUuucnBK-11" value="$" style="rounded=0;whiteSpace=wrap;html=1;fillColor=#FFFF00;fontColor=#FFFFFF;strokeColor=default;" parent="1" vertex="1">
          <mxGeometry x="220" y="70" width="90" height="60" as="geometry" />
        </mxCell>
        <mxCell id="FigWbDeiUK0dSUuucnBK-12" value="" style="rounded=0;whiteSpace=wrap;html=1;fillColor=#FFFF00;fontColor=#FFFFFF;strokeColor=default;" parent="1" vertex="1">
          <mxGeometry x="220" y="130" width="180" height="30" as="geometry" />
        </mxCell>
        <mxCell id="FigWbDeiUK0dSUuucnBK-13" value="BASIC" style="rounded=0;whiteSpace=wrap;html=1;fillColor=#e3c800;fontColor=#FFFFFF;strokeColor=default;" parent="1" vertex="1">
          <mxGeometry x="220" y="30" width="180" height="40" as="geometry" />
        </mxCell>
        <mxCell id="FigWbDeiUK0dSUuucnBK-14" value="STANDARD" style="rounded=0;whiteSpace=wrap;html=1;fillColor=#1ba1e2;fontColor=#ffffff;strokeColor=#006EAF;" parent="1" vertex="1">
          <mxGeometry x="400" y="30" width="180" height="40" as="geometry" />
        </mxCell>
        <mxCell id="FigWbDeiUK0dSUuucnBK-15" value="25" style="rounded=0;whiteSpace=wrap;html=1;fillColor=#FFFF00;fontColor=#FFFFFF;strokeColor=default;" parent="1" vertex="1">
          <mxGeometry x="310" y="70" width="90" height="40" as="geometry" />
        </mxCell>
        <mxCell id="FigWbDeiUK0dSUuucnBK-17" value="per month" style="rounded=0;whiteSpace=wrap;html=1;fillColor=#FFFF00;fontColor=#FFFFFF;strokeColor=default;" parent="1" vertex="1">
          <mxGeometry x="310" y="110" width="90" height="20" as="geometry" />
        </mxCell>
        <mxCell id="FigWbDeiUK0dSUuucnBK-18" value="$" style="rounded=0;whiteSpace=wrap;html=1;fillColor=#b1ddf0;strokeColor=#10739e;" parent="1" vertex="1">
          <mxGeometry x="400" y="70" width="90" height="60" as="geometry" />
        </mxCell>
        <mxCell id="FigWbDeiUK0dSUuucnBK-19" value="50" style="rounded=0;whiteSpace=wrap;html=1;fillColor=#b1ddf0;strokeColor=#10739e;" parent="1" vertex="1">
          <mxGeometry x="490" y="70" width="90" height="40" as="geometry" />
        </mxCell>
        <mxCell id="FigWbDeiUK0dSUuucnBK-20" value="per month" style="rounded=0;whiteSpace=wrap;html=1;fillColor=#b1ddf0;strokeColor=#10739e;" parent="1" vertex="1">
          <mxGeometry x="490" y="110" width="90" height="20" as="geometry" />
        </mxCell>
        <mxCell id="FigWbDeiUK0dSUuucnBK-21" value="$" style="rounded=0;whiteSpace=wrap;html=1;fillColor=#6a00ff;fontColor=#ffffff;strokeColor=#3700CC;" parent="1" vertex="1">
          <mxGeometry x="580" y="70" width="90" height="60" as="geometry" />
        </mxCell>
        <mxCell id="FigWbDeiUK0dSUuucnBK-22" value="25" style="rounded=0;whiteSpace=wrap;html=1;fillColor=#6a00ff;fontColor=#ffffff;strokeColor=#3700CC;" parent="1" vertex="1">
          <mxGeometry x="670" y="70" width="90" height="40" as="geometry" />
        </mxCell>
        <mxCell id="FigWbDeiUK0dSUuucnBK-23" value="per month" style="rounded=0;whiteSpace=wrap;html=1;fillColor=#6a00ff;fontColor=#ffffff;strokeColor=#3700CC;" parent="1" vertex="1">
          <mxGeometry x="670" y="110" width="90" height="20" as="geometry" />
        </mxCell>
        <mxCell id="FigWbDeiUK0dSUuucnBK-25" value="" style="rounded=0;whiteSpace=wrap;html=1;fillColor=#cce5ff;strokeColor=#36393d;" parent="1" vertex="1">
          <mxGeometry y="160" width="780" height="280" as="geometry" />
        </mxCell>
        <mxCell id="FigWbDeiUK0dSUuucnBK-27" value="" style="rounded=0;whiteSpace=wrap;html=1;fillColor=#eeeeee;strokeColor=#36393d;" parent="1" vertex="1">
          <mxGeometry x="20" y="160" width="740" height="40" as="geometry" />
        </mxCell>
        <mxCell id="FigWbDeiUK0dSUuucnBK-28" value="" style="rounded=0;whiteSpace=wrap;html=1;" parent="1" vertex="1">
          <mxGeometry y="210" width="760" height="40" as="geometry" />
        </mxCell>
        <mxCell id="FigWbDeiUK0dSUuucnBK-29" value="" style="rounded=0;whiteSpace=wrap;html=1;fillColor=#eeeeee;strokeColor=#36393d;" parent="1" vertex="1">
          <mxGeometry x="20" y="260" width="740" height="40" as="geometry" />
        </mxCell>
        <mxCell id="FigWbDeiUK0dSUuucnBK-30" value="" style="rounded=0;whiteSpace=wrap;html=1;" parent="1" vertex="1">
          <mxGeometry x="20" y="310" width="740" height="40" as="geometry" />
        </mxCell>
        <mxCell id="FigWbDeiUK0dSUuucnBK-31" value="" style="rounded=0;whiteSpace=wrap;html=1;fillColor=#eeeeee;strokeColor=#36393d;" parent="1" vertex="1">
          <mxGeometry x="20" y="360" width="760" height="40" as="geometry" />
        </mxCell>
        <mxCell id="FigWbDeiUK0dSUuucnBK-32" value="" style="rounded=0;whiteSpace=wrap;html=1;fillColor=#6a00ff;fontColor=#ffffff;strokeColor=#3700CC;" parent="1" vertex="1">
          <mxGeometry x="580" y="410" width="180" height="30" as="geometry" />
        </mxCell>
        <mxCell id="FigWbDeiUK0dSUuucnBK-33" value="" style="rounded=0;whiteSpace=wrap;html=1;fillColor=#b1ddf0;strokeColor=#10739e;" parent="1" vertex="1">
          <mxGeometry x="400" y="410" width="180" height="30" as="geometry" />
        </mxCell>
        <mxCell id="FigWbDeiUK0dSUuucnBK-34" value="" style="rounded=0;whiteSpace=wrap;html=1;fillColor=#FFFF00;strokeColor=default;fontColor=#FFFFFF;" parent="1" vertex="1">
          <mxGeometry x="220" y="410" width="180" height="30" as="geometry" />
        </mxCell>
        <mxCell id="FigWbDeiUK0dSUuucnBK-35" value="" style="rounded=0;whiteSpace=wrap;html=1;fillColor=#FF7700;" parent="1" vertex="1">
          <mxGeometry x="20" y="410" width="200" height="30" as="geometry" />
        </mxCell>
        <mxCell id="FigWbDeiUK0dSUuucnBK-37" value="" style="rounded=0;whiteSpace=wrap;html=1;fillColor=none;" parent="1" vertex="1">
          <mxGeometry x="30" y="170" width="180" height="20" as="geometry" />
        </mxCell>
        <mxCell id="FigWbDeiUK0dSUuucnBK-38" value="" style="rounded=0;whiteSpace=wrap;html=1;fillColor=none;" parent="1" vertex="1">
          <mxGeometry x="230" y="170" width="160" height="20" as="geometry" />
        </mxCell>
        <mxCell id="FigWbDeiUK0dSUuucnBK-39" value="" style="rounded=0;whiteSpace=wrap;html=1;fillColor=none;" parent="1" vertex="1">
          <mxGeometry x="410" y="170" width="160" height="20" as="geometry" />
        </mxCell>
        <mxCell id="FigWbDeiUK0dSUuucnBK-40" value="" style="rounded=0;whiteSpace=wrap;html=1;fillColor=none;" parent="1" vertex="1">
          <mxGeometry x="590" y="170" width="160" height="20" as="geometry" />
        </mxCell>
        <mxCell id="FigWbDeiUK0dSUuucnBK-45" value="" style="rounded=0;whiteSpace=wrap;html=1;fillColor=none;" parent="1" vertex="1">
          <mxGeometry x="30" y="220" width="180" height="20" as="geometry" />
        </mxCell>
        <mxCell id="FigWbDeiUK0dSUuucnBK-46" value="" style="rounded=0;whiteSpace=wrap;html=1;fillColor=none;" parent="1" vertex="1">
          <mxGeometry x="230" y="220" width="160" height="20" as="geometry" />
        </mxCell>
        <mxCell id="FigWbDeiUK0dSUuucnBK-47" value="" style="rounded=0;whiteSpace=wrap;html=1;fillColor=none;" parent="1" vertex="1">
          <mxGeometry x="410" y="220" width="160" height="20" as="geometry" />
        </mxCell>
        <mxCell id="FigWbDeiUK0dSUuucnBK-48" value="" style="rounded=0;whiteSpace=wrap;html=1;fillColor=none;" parent="1" vertex="1">
          <mxGeometry x="590" y="220" width="160" height="20" as="geometry" />
        </mxCell>
        <mxCell id="FigWbDeiUK0dSUuucnBK-49" value="" style="rounded=0;whiteSpace=wrap;html=1;fillColor=none;" parent="1" vertex="1">
          <mxGeometry x="30" y="270" width="180" height="20" as="geometry" />
        </mxCell>
        <mxCell id="FigWbDeiUK0dSUuucnBK-50" value="" style="rounded=0;whiteSpace=wrap;html=1;fillColor=none;" parent="1" vertex="1">
          <mxGeometry x="230" y="270" width="160" height="20" as="geometry" />
        </mxCell>
        <mxCell id="FigWbDeiUK0dSUuucnBK-51" value="" style="rounded=0;whiteSpace=wrap;html=1;fillColor=none;" parent="1" vertex="1">
          <mxGeometry x="410" y="270" width="160" height="20" as="geometry" />
        </mxCell>
        <mxCell id="FigWbDeiUK0dSUuucnBK-52" value="" style="rounded=0;whiteSpace=wrap;html=1;fillColor=none;" parent="1" vertex="1">
          <mxGeometry x="590" y="270" width="160" height="20" as="geometry" />
        </mxCell>
        <mxCell id="FigWbDeiUK0dSUuucnBK-53" value="" style="rounded=0;whiteSpace=wrap;html=1;fillColor=none;" parent="1" vertex="1">
          <mxGeometry x="30" y="320" width="180" height="20" as="geometry" />
        </mxCell>
        <mxCell id="FigWbDeiUK0dSUuucnBK-54" value="" style="rounded=0;whiteSpace=wrap;html=1;fillColor=none;" parent="1" vertex="1">
          <mxGeometry x="230" y="320" width="160" height="20" as="geometry" />
        </mxCell>
        <mxCell id="FigWbDeiUK0dSUuucnBK-55" value="" style="rounded=0;whiteSpace=wrap;html=1;fillColor=none;" parent="1" vertex="1">
          <mxGeometry x="410" y="320" width="160" height="20" as="geometry" />
        </mxCell>
        <mxCell id="FigWbDeiUK0dSUuucnBK-56" value="" style="rounded=0;whiteSpace=wrap;html=1;fillColor=none;" parent="1" vertex="1">
          <mxGeometry x="590" y="320" width="160" height="20" as="geometry" />
        </mxCell>
        <mxCell id="FigWbDeiUK0dSUuucnBK-57" value="" style="rounded=0;whiteSpace=wrap;html=1;fillColor=none;" parent="1" vertex="1">
          <mxGeometry x="30" y="370" width="180" height="20" as="geometry" />
        </mxCell>
        <mxCell id="FigWbDeiUK0dSUuucnBK-58" value="" style="rounded=0;whiteSpace=wrap;html=1;fillColor=none;" parent="1" vertex="1">
          <mxGeometry x="230" y="370" width="160" height="20" as="geometry" />
        </mxCell>
        <mxCell id="FigWbDeiUK0dSUuucnBK-59" value="" style="rounded=0;whiteSpace=wrap;html=1;fillColor=none;" parent="1" vertex="1">
          <mxGeometry x="410" y="370" width="160" height="20" as="geometry" />
        </mxCell>
        <mxCell id="FigWbDeiUK0dSUuucnBK-60" value="" style="rounded=0;whiteSpace=wrap;html=1;fillColor=none;" parent="1" vertex="1">
          <mxGeometry x="590" y="370" width="160" height="20" as="geometry" />
        </mxCell>
        <mxCell id="FigWbDeiUK0dSUuucnBK-61" value="" style="rounded=0;whiteSpace=wrap;html=1;fillColor=none;" parent="1" vertex="1">
          <mxGeometry x="20" y="10" width="200" height="20" as="geometry" />
        </mxCell>
        <mxCell id="FigWbDeiUK0dSUuucnBK-62" value="" style="rounded=0;whiteSpace=wrap;html=1;fillColor=none;" parent="1" vertex="1">
          <mxGeometry x="220" y="10" width="90" height="20" as="geometry" />
        </mxCell>
        <mxCell id="FigWbDeiUK0dSUuucnBK-63" value="" style="rounded=0;whiteSpace=wrap;html=1;fillColor=none;" parent="1" vertex="1">
          <mxGeometry x="400" y="10" width="180" height="20" as="geometry" />
        </mxCell>
        <mxCell id="1vhUfhiw7d-w7FKMQkkI-1" value="" style="rounded=0;whiteSpace=wrap;html=1;fillColor=none;" vertex="1" parent="1">
          <mxGeometry x="310" y="10" width="90" height="20" as="geometry" />
        </mxCell>
      </root>
    </mxGraphModel>
  </diagram>
</mxfile>
